<?xml version="1.0" encoding="UTF-8"?>
<svg version="1.1" xmlns="http://www.w3.org/2000/svg" width="256" height="256">
<path d="M0 0 C3.7814036 2.96255951 5.78415172 5.69539507 6.609375 10.3984375 C6.84979559 15.82728958 6.55445193 19.19538033 2.98046875 23.4453125 C-1.48567195 27.80469286 -4.76155375 28.81846177 -10.89453125 29.2578125 C-14.13263989 29.54692934 -15.60541121 29.73910223 -18.39453125 31.5078125 C-20.45187248 34.90689801 -20.83203125 36.85573752 -20.83203125 40.8828125 C-20.22783715 42.64762132 -19.57600746 44.396382 -18.89453125 46.1328125 C-15.28662515 56.17439732 -14.99974402 68.33004656 -18.76953125 78.3828125 C-24.77293643 90.42334986 -33.25337962 98.41706633 -45.95703125 102.7578125 C-47.24494005 103.14552207 -48.53529419 103.52573998 -49.83203125 103.8828125 C-52.31950424 101.39533951 -51.25860654 95.15093902 -51.33203125 91.8203125 C-51.38617188 90.79486328 -51.4403125 89.76941406 -51.49609375 88.71289062 C-51.59749264 83.05265969 -51.29428066 79.72305056 -47.3984375 75.44921875 C-46.77138916 74.87244385 -46.14434082 74.29566895 -45.49829102 73.70141602 C-42.44029445 70.36383119 -41.98643357 66.28327859 -41.83203125 61.8828125 C-42.27124114 56.07896753 -44.61257428 50.91837062 -48.83203125 46.8828125 C-53.92573116 43.64310468 -58.77025293 42.11131344 -64.83203125 42.8828125 C-72.28207176 44.61305224 -75.52349271 48.30059753 -79.64453125 54.6953125 C-81.47323556 59.60393986 -81.79163316 64.09258541 -80.0703125 69.09765625 C-78.63771417 72.13838866 -77.56709591 74.35761578 -74.78833008 76.34301758 C-71.70212602 80.34972928 -72.24092501 84.42055331 -72.265625 89.34375 C-72.25942642 90.36707428 -72.25322784 91.39039856 -72.24684143 92.44473267 C-72.23974136 94.60832773 -72.24292049 96.7719774 -72.25561523 98.93554688 C-72.26945375 102.23931048 -72.23544383 105.54022681 -72.19726562 108.84375 C-72.19631415 110.94791736 -72.19817478 113.05208825 -72.203125 115.15625 C-72.18986679 116.1408017 -72.17660858 117.12535339 -72.16294861 118.13973999 C-72.25015264 124.59395925 -73.23314675 127.34368777 -77.83203125 131.8828125 C-80.47853184 136.81077911 -81.88672436 141.32079882 -80.83203125 146.8828125 C-78.55316234 153.33960776 -76.01791246 157.78987189 -69.83203125 160.8828125 C-64.58021504 162.6334179 -58.77145276 162.9400162 -53.5078125 161.046875 C-47.72937518 157.76692391 -44.05809763 153.10169929 -42.203125 146.71875 C-41.18402961 140.64708695 -42.7298585 135.57174328 -44.83203125 129.8828125 C-39.49869792 124.54947917 -34.16536458 119.21614583 -28.83203125 113.8828125 C-25.3281868 115.05076065 -24.8303343 115.88535792 -22.83203125 118.8828125 C-22.33703125 119.6046875 -21.84203125 120.3265625 -21.33203125 121.0703125 C-17.64285382 127.98752019 -16.293701 134.52144994 -16.39453125 142.3203125 C-16.40282959 143.15361084 -16.41112793 143.98690918 -16.41967773 144.84545898 C-16.59462913 151.21655394 -17.49828561 156.35607194 -20.83203125 161.8828125 C-21.34121094 162.73101562 -21.85039062 163.57921875 -22.375 164.453125 C-29.15280763 174.84472937 -37.56804831 181.81948598 -49.70703125 184.6328125 C-62.42469955 187.06925001 -75.58810685 186.30020143 -86.87890625 179.25390625 C-96.80637267 172.28482482 -104.51242155 162.05524056 -106.83203125 149.8828125 C-107.73846511 136.04226469 -105.37005187 125.93104421 -96.83203125 114.8828125 C-91.79765915 109.4869056 -86.57567406 105.825493 -79.83203125 102.8828125 C-80.69828125 102.40070313 -81.56453125 101.91859375 -82.45703125 101.421875 C-84.12765625 100.47441406 -84.12765625 100.47441406 -85.83203125 99.5078125 C-86.94578125 98.88132812 -88.05953125 98.25484375 -89.20703125 97.609375 C-90.50640625 96.75472656 -90.50640625 96.75472656 -91.83203125 95.8828125 C-91.83203125 95.2228125 -91.83203125 94.5628125 -91.83203125 93.8828125 C-92.41984375 93.65464844 -93.00765625 93.42648438 -93.61328125 93.19140625 C-100.06354685 89.38711228 -103.89470262 79.71850234 -106.17578125 72.8359375 C-108.72159896 61.37975781 -106.75340001 50.77943076 -101.08203125 40.6953125 C-95.38103838 31.74461362 -87.03065549 24.27269612 -76.83203125 20.8828125 C-65.35419511 18.70915415 -52.46227944 17.30640566 -41.703125 23.01171875 C-39.32369793 24.11946872 -37.84876595 23.93254005 -35.26953125 23.5703125 C-34.50511719 23.47105469 -33.74070312 23.37179688 -32.953125 23.26953125 C-30.65443502 22.9019138 -30.65443502 22.9019138 -27.83203125 21.8828125 C-26.62897566 19.12286145 -25.92271771 16.44234797 -25.44140625 13.47265625 C-24.45877494 7.4403918 -23.46088712 4.00853186 -18.83203125 -0.1171875 C-12.60424248 -3.93816707 -6.25675125 -3.81541761 0 0 Z " fill="#D71C1D" transform="translate(189.83203125,33.1171875)"/>
<path d="M0 0 C4.95 0 9.9 0 15 0 C15.0268245 4.14587582 15.04675315 8.29158038 15.0625 12.4375 C15.07087891 13.62150391 15.07925781 14.80550781 15.08789062 16.02539062 C15.09111328 17.15009766 15.09433594 18.27480469 15.09765625 19.43359375 C15.10289307 20.47572021 15.10812988 21.51784668 15.11352539 22.59155273 C15 25 15 25 14 26 C9.33154772 26.14426614 4.67134047 26.04208415 0 26 C0 17.42 0 8.84 0 0 Z " fill="#D91B1C" transform="translate(121,124)"/>
</svg>
