<?xml version="1.0" encoding="UTF-8"?>
<svg version="1.1" xmlns="http://www.w3.org/2000/svg" width="256" height="256">
<path d="M0 0 C84.48 0 168.96 0 256 0 C256 84.48 256 168.96 256 256 C171.52 256 87.04 256 0 256 C0 171.52 0 87.04 0 0 Z " fill="#FEFEFE" transform="translate(0,0)"/>
<path d="M0 0 C3.67719377 1.30836482 6.29103707 3.22242776 8.9375 6.125 C11.00071047 11.7078048 10.91402818 16.94343659 8.5 22.375 C3.38656805 27.74410354 -1.72751293 29.14877466 -8.94921875 29.66015625 C-12.0871705 30.18015968 -13.83166404 31.76390354 -16 34 C-17.97278297 37.94556593 -17.22571436 42.15155583 -16.125 46.2890625 C-15.75375 47.38992187 -15.3825 48.49078125 -15 49.625 C-11.30490404 62.08275211 -12.27276078 72.91910277 -18.28515625 84.46875 C-24.19361515 94.08028202 -32.42376202 100.23955983 -43 104 C-43.66 104 -44.32 104 -45 104 C-45.14528105 100.25040783 -45.23406281 96.50153895 -45.3125 92.75 C-45.35439453 91.68652344 -45.39628906 90.62304688 -45.43945312 89.52734375 C-45.48538965 86.60578067 -45.47171348 83.8845008 -45 81 C-42.625 78.5625 -42.625 78.5625 -40 77 C-36.61755885 71.30121662 -35.15582299 65.54237183 -36 59 C-37.98746947 52.79062793 -41.61409523 48.59060318 -47 45 C-51.78755953 42.71029762 -56.78154127 42.04815313 -62 43 C-68.26334419 45.66720971 -72.88743779 48.91020436 -76 55 C-78.00103505 61.00310516 -78.00923635 67.68097553 -75.25 73.4375 C-73.99793772 75.73791601 -73.10646209 76.92454297 -70.9453125 78.45629883 C-67.87005922 82.4775167 -68.50630421 86.53277677 -68.609375 91.453125 C-68.61503479 92.46848328 -68.62069458 93.48384155 -68.62652588 94.52996826 C-68.64890247 97.77046001 -68.69910245 101.0098429 -68.75 104.25 C-68.77006329 106.44790069 -68.78831435 108.64581872 -68.8046875 110.84375 C-68.84877129 116.2295445 -68.91569627 121.61469303 -69 127 C-70.485 127.495 -70.485 127.495 -72 128 C-73.08431094 129.74867483 -73.08431094 129.74867483 -74 132 C-74.53625 132.845625 -75.0725 133.69125 -75.625 134.5625 C-77.81580142 140.03950354 -78.00765862 145.62975196 -76.30859375 151.3125 C-73.58632022 157.32656035 -69.14499253 161.48011098 -63 164 C-56.5421932 164.79338769 -50.38392366 164.68586361 -44.68359375 161.33203125 C-40.05087197 157.66669917 -37.28603538 152.72870304 -36 147 C-35.5846195 142.44849026 -35.89204042 139.07538853 -38 135 C-37.93244034 130.27082346 -35.48314449 128.0610377 -32.29101562 124.93945312 C-31.67935547 124.36130859 -31.06769531 123.78316406 -30.4375 123.1875 C-29.82197266 122.59001953 -29.20644531 121.99253906 -28.57226562 121.37695312 C-27.05706751 119.9087379 -25.52969562 118.45310447 -24 117 C-20.12242874 118.29252375 -19.81214652 119.63478116 -17.9375 123.1875 C-17.43089844 124.12980469 -16.92429687 125.07210937 -16.40234375 126.04296875 C-11.71836744 135.9197656 -11.27856397 147.30523603 -14.9609375 157.6640625 C-20.75655604 170.6933102 -29.00344899 178.51663624 -42.1875 183.75 C-52.4213774 187.58491702 -64.03477173 187.12685034 -74.1484375 183.32421875 C-85.03242488 178.26987392 -93.50969281 170.19384637 -98 159 C-98.53367187 157.67742187 -98.53367187 157.67742187 -99.078125 156.328125 C-101.85705832 146.29570471 -101.3046139 133.96739137 -96.67578125 124.64453125 C-90.72334491 115.25105945 -82.92800164 108.81898506 -73 104 C-74.06927734 103.34644531 -74.06927734 103.34644531 -75.16015625 102.6796875 C-87.38088011 95.08079864 -96.02505679 87.3604566 -100 73 C-100.39117517 70.00590238 -100.43061739 67.07869836 -100.375 64.0625 C-100.36557373 63.27053223 -100.35614746 62.47856445 -100.34643555 61.66259766 C-100.07601249 51.20552132 -96.60663635 43.22915478 -89.6875 35.375 C-76.84255393 24.02365231 -66.14058529 21.14082765 -49.21386719 21.79443359 C-45.50096761 22.13919114 -42.51272397 23.47366659 -39.203125 25.09375 C-35.2104943 26.73610873 -31.21553378 26.74127503 -27 26 C-22.8933492 23.69000893 -21.26682722 21.48261939 -20 17 C-19.86271484 15.86304688 -19.86271484 15.86304688 -19.72265625 14.703125 C-18.89253808 8.54719249 -17.34761962 5.06110363 -12.34765625 1.22265625 C-8.20518551 -0.934737 -4.51473667 -0.92647691 0 0 Z " fill="#D71F20" transform="translate(185,32)"/>
<path d="M0 0 C4.29 0 8.58 0 13 0 C13 8.25 13 16.5 13 25 C8.71 25 4.42 25 0 25 C0 16.75 0 8.5 0 0 Z " fill="#D82C2C" transform="translate(122,124)"/>
</svg>
